<!--TUM ICONLAR flaticon.com UZERINDEN ALINMISTIR-->

<svg version="1.1" xmlns="http://www.w3.org/2000/svg">

  <defs>

	<symbol id="outbox" viewBox="0 0 512 512">
	  <path d="M498.966,339.95c-7.197,0-13.034,5.835-13.034,13.034v49.804c0,28.747-23.388,52.135-52.135,52.135H78.203
			c-28.747,0-52.135-23.388-52.135-52.135v-49.804c0-7.199-5.835-13.034-13.034-13.034C5.835,339.95,0,345.785,0,352.984v49.804
			c0,43.121,35.082,78.203,78.203,78.203h355.594c43.121,0,78.203-35.082,78.203-78.203v-49.804
			C512,345.785,506.165,339.95,498.966,339.95z"/>

	  <path d="M419.833,391.305H92.167c-7.197,0-13.034,5.835-13.034,13.034s5.835,13.034,13.034,13.034h327.665
			c7.199,0,13.034-5.835,13.034-13.034S427.031,391.305,419.833,391.305z"/>

	  <path d="M386.882,136.832L277.708,39.301c-12.376-11.055-31.04-11.057-43.417,0l-109.174,97.53
			c-5.369,4.795-5.833,13.035-1.037,18.404c4.795,5.367,13.034,5.835,18.405,1.037l100.482-89.764v252.61
			c0,7.199,5.837,13.034,13.034,13.034c7.199,0,13.034-5.835,13.034-13.034V66.508l100.482,89.764
			c2.486,2.221,5.588,3.315,8.678,3.315c3.583,0,7.15-1.469,9.726-4.351C392.714,149.867,392.25,141.629,386.882,136.832z"/>
	</symbol>

	<symbol id="inbox" viewBox="0 0 512 512">
	  <path d="M498.966,339.946c-7.197,0-13.034,5.837-13.034,13.034v49.804c0,28.747-23.388,52.135-52.135,52.135H78.203
			c-28.747,0-52.135-23.388-52.135-52.135V352.98c0-7.197-5.835-13.034-13.034-13.034C5.835,339.946,0,345.782,0,352.98v49.804
			c0,43.121,35.082,78.203,78.203,78.203h355.594c43.121,0,78.203-35.082,78.203-78.203V352.98
			C512,345.782,506.165,339.946,498.966,339.946z"/>

	  <path d="M419.833,391.3H92.167c-7.197,0-13.034,5.837-13.034,13.034s5.835,13.034,13.034,13.034h327.665
			c7.199,0,13.034-5.835,13.034-13.034C432.866,397.137,427.031,391.3,419.833,391.3z"/>

	  <path d="M387.919,207.93c-4.795-5.367-13.034-5.834-18.404-1.038l-100.482,89.765V44.048c0-7.197-5.835-13.034-13.034-13.034
			c-7.197,0-13.034,5.835-13.034,13.034v252.609l-100.482-89.764c-5.367-4.796-13.607-4.328-18.404,1.038
			c-4.794,5.369-4.331,13.609,1.037,18.404l109.174,97.527c6.187,5.529,13.946,8.292,21.708,8.292
			c7.759,0,15.519-2.763,21.708-8.289l109.174-97.53C392.25,221.537,392.714,213.297,387.919,207.93z"/>
	</symbol>

	<symbol id="archive" viewBox="0 0 512 512">
	  <path d="M312.461,332.734H199.539c-8.511,0-15.434,6.923-15.434,15.434v34.634c0,8.511,6.923,15.435,15.434,15.435h112.923
			c8.511,0,15.435-6.923,15.435-15.435v-34.634C327.895,339.658,320.972,332.734,312.461,332.734z M308.051,378.393H203.948v-25.814
			h104.103V378.393z"/>

	  <path d="M506.976,246.958l0.159-0.08L432.73,99.774c-6.015-11.89-18.025-19.275-31.346-19.275h-14.141V66.824
			c0-5.48-4.442-9.922-9.922-9.922H134.68c-5.48,0-9.922,4.442-9.922,9.922v13.675h-14.141c-13.321,0-25.331,7.385-31.346,19.275
			L4.865,246.878l0.159,0.08C1.837,252.207,0,258.363,0,264.939v155.409c0,19.162,15.59,34.751,34.752,34.751h442.497
			c19.162,0,34.751-15.59,34.751-34.751V264.939C512,258.363,510.163,252.207,506.976,246.958z M387.242,102.548h14.141
			c4.959,0,9.43,2.751,11.671,7.179l60.93,120.462h-41.431v-37.066c0-5.48-4.442-9.922-9.922-9.922h-12.275v-53.227
			c0-5.48-4.442-9.922-9.922-9.922h-13.192V102.548z M412.71,203.044v27.144h-52.359c-8.984,0-17.174,5.293-20.865,13.482
			l-14.296,31.71c-0.136,0.299-0.435,0.493-0.764,0.493H187.575c-0.329,0-0.628-0.194-0.764-0.494l-14.295-31.708
			c-3.692-8.19-11.882-13.483-20.866-13.483H99.291v-27.144H412.71z M144.602,76.746h222.796v43.305H144.602V76.746z
			 M390.512,139.895v43.305H121.488v-43.305H390.512z M98.946,109.727c2.24-4.429,6.712-7.179,11.671-7.179h14.141v17.503h-13.192
			c-5.48,0-9.922,4.442-9.922,9.922v53.227H89.369c-5.48,0-9.922,4.442-9.922,9.922v37.066H38.016L98.946,109.727z M477.249,433.049
			H34.752c-7.004,0-12.703-5.699-12.703-12.701V264.939c0-7.003,5.698-12.701,12.703-12.701H151.65c0.328,0,0.629,0.194,0.765,0.495
			l14.295,31.708c3.692,8.19,11.881,13.481,20.865,13.481h136.85c8.984,0,17.174-5.292,20.865-13.48l14.296-31.709v-0.001
			c0.136-0.3,0.435-0.494,0.764-0.494h116.898c7.004,0,12.701,5.699,12.701,12.701v155.409h0.001
			C489.951,427.352,484.253,433.049,477.249,433.049z"/>
	</symbol>

	<symbol id="despatch-in" viewBox="0 0 57 57">
	  <path d="M31.5,57h24V33h-24V57z M33.5,35h9v12.586l-4.293-4.293l-1.414,1.414l6.707,6.707l6.707-6.707l-1.414-1.414L44.5,47.586V35
		h9v20h-20V35z"/>

	  <path d="M28.5,14h18c0.553,0,1-0.447,1-1s-0.447-1-1-1h-18c-0.552,0-1,0.447-1,1S27.948,14,28.5,14z"/>

	  <path d="M47.5,27c0-0.553-0.447-1-1-1h-18c-0.552,0-1,0.447-1,1s0.448,1,1,1h18C47.053,28,47.5,27.553,47.5,27z"/>

	  <path d="M22.08,7.241c-0.418-0.36-1.051-0.313-1.41,0.108l-6.248,7.288L10.6,11.771c-0.443-0.33-1.069-0.242-1.4,0.2
		c-0.332,0.441-0.242,1.068,0.2,1.399l4.571,3.429c0.18,0.135,0.39,0.2,0.6,0.2c0.283,0,0.563-0.119,0.76-0.35l6.857-8
		C22.547,8.231,22.499,7.601,22.08,7.241z"/>

	  <path d="M22.08,21.241c-0.418-0.36-1.051-0.313-1.41,0.108l-6.248,7.288L10.6,25.771c-0.443-0.331-1.069-0.241-1.4,0.2
		c-0.332,0.441-0.242,1.068,0.2,1.399l4.571,3.429c0.18,0.135,0.39,0.2,0.6,0.2c0.283,0,0.563-0.119,0.76-0.35l6.857-8
		C22.547,22.231,22.499,21.601,22.08,21.241z"/>

	  <path d="M20.669,36.35l-6.248,7.287L10.6,40.771c-0.443-0.331-1.069-0.241-1.4,0.2c-0.332,0.441-0.242,1.068,0.2,1.399l4.571,3.429
		c0.18,0.135,0.39,0.2,0.6,0.2c0.283,0,0.563-0.119,0.76-0.35l6.857-7.999c0.359-0.419,0.311-1.05-0.108-1.409
		C21.662,35.882,21.029,35.93,20.669,36.35z"/>

	  <path d="M43.324,0H13.676C6.962,0,1.5,5.462,1.5,12.176v29.648C1.5,48.538,6.962,54,13.676,54H21.5c0.552,0,1-0.447,1-1
		s-0.448-1-1-1h-7.824C8.065,52,3.5,47.436,3.5,41.824V12.176C3.5,6.564,8.065,2,13.676,2h29.648C48.936,2,53.5,6.564,53.5,12.176
		V29c0,0.553,0.447,1,1,1s1-0.447,1-1V12.176C55.5,5.462,50.038,0,43.324,0z"/>
	</symbol>

	<symbol id="despatch-out" viewBox="0 0 57 57">
	  <path d="M30.5,57h24V33h-24V57z M32.5,35h20v20h-9V42.414l4.293,4.293l1.414-1.414L42.5,38.586l-6.707,6.707l1.414,1.414
		l4.293-4.293V55h-9V35z"/>

	  <path d="M28.5,14h18c0.552,0,1-0.447,1-1s-0.448-1-1-1h-18c-0.552,0-1,0.447-1,1S27.948,14,28.5,14z"/>

	  <path d="M47.5,27c0-0.553-0.448-1-1-1h-18c-0.552,0-1,0.447-1,1s0.448,1,1,1h18C47.052,28,47.5,27.553,47.5,27z"/>

	  <path d="M22.08,7.241c-0.418-0.36-1.051-0.313-1.41,0.108l-6.248,7.288L10.6,11.771c-0.442-0.33-1.068-0.242-1.4,0.2
		c-0.332,0.441-0.242,1.068,0.2,1.399l4.571,3.429c0.18,0.135,0.39,0.2,0.6,0.2c0.283,0,0.563-0.119,0.76-0.35l6.857-8
		C22.547,8.231,22.499,7.601,22.08,7.241z"/>

	  <path d="M22.08,21.241c-0.418-0.36-1.051-0.313-1.41,0.108l-6.248,7.288L10.6,25.771c-0.442-0.331-1.068-0.241-1.4,0.2
		s-0.242,1.068,0.2,1.399l4.571,3.429c0.18,0.135,0.39,0.2,0.6,0.2c0.283,0,0.563-0.119,0.76-0.35l6.857-8
		C22.547,22.231,22.499,21.601,22.08,21.241z"/>

	  <path d="M20.669,36.35l-6.248,7.287L10.6,40.771c-0.442-0.331-1.068-0.241-1.4,0.2s-0.242,1.068,0.2,1.399l4.571,3.429
		c0.18,0.135,0.39,0.2,0.6,0.2c0.283,0,0.563-0.119,0.76-0.35l6.857-7.999c0.359-0.419,0.311-1.05-0.108-1.409
		C21.661,35.882,21.029,35.93,20.669,36.35z"/>

	  <path d="M43.324,0H13.676C6.962,0,1.5,5.462,1.5,12.176v29.648C1.5,48.538,6.962,54,13.676,54H22.5c0.552,0,1-0.447,1-1
		s-0.448-1-1-1h-8.824C8.065,52,3.5,47.436,3.5,41.824V12.176C3.5,6.564,8.065,2,13.676,2h29.648C48.935,2,53.5,6.564,53.5,12.176
		V30c0,0.553,0.448,1,1,1s1-0.447,1-1V12.176C55.5,5.462,50.038,0,43.324,0z"/>
	</symbol>

	<symbol id="esmm" viewBox="0 0 60 60">
	  <path d="M45,0H13l0,0c-0.1,0-0.2,0-0.3,0.1h-0.1c-0.1,0.1-0.2,0.1-0.3,0.2l-12,12c-0.1,0.1-0.1,0.2-0.2,0.3v0.1
			C0.1,12.8,0,12.9,0,13l0,0v46c0,0.6,0.4,1,1,1h44c0.6,0,1-0.4,1-1V1C46,0.4,45.6,0,45,0z M12,3.4V12H3.4l4.3-4.3L12,3.4z M44,58H2
			c0,0,0-42.8,0-44h11c0.6,0,1-0.4,1-1V2h30V58z"/>

	  <path d="M40,19H6c-0.6,0-1,0.4-1,1v32c0,0.6,0.4,1,1,1h34c0.6,0,1-0.4,1-1V20C41,19.4,40.6,19,40,19z M39,25H15v-4h24V25z M15,40
			h24v5H15V40z M15,38v-5h24v5H15z M15,31v-4h24v4H15z M13,21v4H7c0-0.9,0-4,0-4H13z M7,27h6v24H7C7,51,7,34.7,7,27z M15,51v-4h24v4
			H15z"/>

	  <rect x="9" y="29" width="2" height="2"/>

	  <rect x="9" y="35" width="2" height="2"/>

	  <rect x="9" y="41" width="2" height="2"/>

	  <rect x="9" y="47" width="2" height="2"/>

	  <rect x="33" y="6" width="8" height="2"/>

	  <rect x="26" y="10" width="15" height="2"/>

	  <path d="M58,24v29h-2v-5V10c0-0.2-0.1-0.5-0.2-0.6l-2.9-8.7C52.8,0.3,52.4,0,52,0s-0.8,0.3-0.9,0.7l-2.9,8.7
			C48.1,9.6,48,9.8,48,10v38v11c0,0.6,0.4,1,1,1h6c0.6,0,1-0.4,1-1v-4h3c0.6,0,1-0.4,1-1V24H58z M50,11h4v36h-4V11z M52,4.2L53.6,9
			h-3.2L52,4.2z M54,58h-4v-9h4V58z"/>
	</symbol>

	<symbol id="emm" viewBox="0 0 64 64">
	  <path d="m53 1h-42a1 1 0 0 0 -1 1v60a1 1 0 0 0 1 1h30a1 1 0 0 0 .707-.293l12-12a1 1 0 0 0 .293-.707v-48a1 1 0 0 0 -1-1zm-41 2h40v46h-11a1 1 0 0 0 -1
	  1v11h-28zm38.586 48-8.586 8.586v-8.586z"/>

	  <path d="m15 14h34a1 1 0 0 0 1-1v-6a1 1 0 0 0 -1-1h-34a1 1 0 0 0 -1 1v6a1 1 0 0 0 1 1zm1-6h32v4h-32z"/>

	  <path d="m15 18h34a1 1 0 0 0 0-2h-34a1 1 0 0 0 0 2z"/>

	  <path d="m15 22h34a1 1 0 0 0 0-2h-34a1 1 0 0 0 0 2z"/>

	  <path d="m37 24h-22a1 1 0 0 0 0 2h22a1 1 0 0 0 0-2z"/>

	  <path d="m40 26h1a1 1 0 0 0 0-2h-1a1 1 0 0 0 0 2z"/>

	  <path d="m33 32h-18a1 1 0 0 0 -1 1v6a1 1 0 0 0 1 1h18a1 1 0 0 0 1-1v-6a1 1 0 0 0 -1-1zm-1 6h-16v-4h16z"/>

	  <path d="m26 42h-11a1 1 0 0 0 0 2h11a1 1 0 0 0 0-2z"/>

	  <path d="m20 46h-5a1 1 0 0 0 0 2h5a1 1 0 0 0 0-2z"/>
	</symbol>

	<symbol id="goto-page" viewBox="0 0 58 58">
	  <circle style="fill:#25AE88;" cx="29" cy="29" r="29"/>

	  <polygon style="fill:#FFFFFF;" points="54,29 32,44 32,29.273 32,14 	"/>
	  <path style="fill:#FFFFFF;" d="M32,45c-0.16,0-0.32-0.038-0.467-0.116C31.205,44.711,31,44.371,31,44V14
		c0-0.371,0.205-0.711,0.533-0.884c0.327-0.174,0.725-0.15,1.03,0.058l22,15C54.837,28.36,55,28.669,55,29s-0.163,0.64-0.437,0.826
		l-22,15C32.395,44.941,32.197,45,32,45z M33,15.893v26.215L52.225,29L33,15.893z"/>

	  <polygon style="fill:#FFFFFF;" points="32,29 10,44 10,29.273 10,14 	"/>
	  <path style="fill:#FFFFFF;" d="M10,45c-0.16,0-0.32-0.038-0.467-0.116C9.205,44.711,9,44.371,9,44V14
		c0-0.371,0.205-0.711,0.533-0.884c0.327-0.174,0.725-0.15,1.03,0.058l22,15C32.837,28.36,33,28.669,33,29s-0.163,0.64-0.437,0.826
		l-22,15C10.395,44.941,10.197,45,10,45z M11,15.893v26.215L30.225,29L11,15.893z"/>
	</symbol>

	<symbol id="history" viewBox="0 0 551.13 551.13">

	  <path d="m275.531 172.228-.05 120.493c0 4.575 1.816 8.948 5.046 12.177l86.198 86.181 24.354-24.354-81.153-81.136.05-113.361z"/>
	  <path d="m310.011 34.445c-121.23 0-221.563 90.033-238.367 206.674h-71.644l86.114 86.114 86.114-86.114h-65.78c16.477-97.589 101.355-172.228 203.563-172.228
	  113.966 0 206.674 92.707 206.674 206.674s-92.707 206.674-206.674 206.674c-64.064 0-123.469-28.996-162.978-79.555l-27.146 21.192c46.084 58.968 115.379 92.808
	  190.124 92.808 132.955 0 241.119-108.181 241.119-241.119s-108.164-241.119-241.119-241.12z"/>
	</symbol>

	<symbol id="people" viewBox="0 0 536.071 536.07">

	  <path d="M147.128,91.076c0-37.95,30.766-68.716,68.721-68.716c37.95,0,68.719,30.766,68.719,68.716s-30.769,68.715-68.719,68.715
		C177.894,159.792,147.128,129.026,147.128,91.076z M248.873,206.607c0.689-14.963,5.84-28.812,14.127-40.261
		c-5.816-1.218-11.827-1.865-17.995-1.865h-58.304c-6.15,0-12.153,0.642-17.939,1.845c8.819,12.232,14.094,27.171,14.18,43.343
		c10.72-5.896,23.02-9.253,36.085-9.253C229.625,200.416,239.714,202.624,248.873,206.607z M260.505,212.775
		c19.96,12.517,33.957,33.688,36.517,58.274c8.133,3.801,17.171,5.994,26.746,5.994c34.968,0,63.311-28.346,63.311-63.313
		c0-34.971-28.343-63.311-63.311-63.311C289.12,150.42,261.031,178.257,260.505,212.775z M219.026,342.411
		c34.962,0,63.307-28.354,63.307-63.311c0-34.962-28.345-63.311-63.307-63.311c-34.965,0-63.322,28.348-63.322,63.311
		C155.705,314.057,184.061,342.411,219.026,342.411z M245.882,346.72h-53.717c-44.697,0-81.069,36.369-81.069,81.072v65.703
		l0.171,1.029l4.522,1.406c42.658,13.323,79.718,17.779,110.224,17.779c59.571,0,94.114-16.987,96.242-18.074l4.231-2.141h0.449
		v-65.703C326.936,383.089,290.585,346.72,245.882,346.72z M350.638,281.364h-53.314c-0.579,21.332-9.683,40.542-24.081,54.35
		c39.732,11.815,68.802,48.657,68.802,92.178v20.245c52.629-1.938,82.963-16.846,84.961-17.851l4.232-2.152h0.449v-65.715
		C431.693,317.728,395.324,281.364,350.638,281.364z M364.889,149.069c19.961,12.519,33.957,33.691,36.511,58.277
		c8.134,3.801,17.171,5.99,26.746,5.99c34.975,0,63.316-28.342,63.316-63.304c0-34.972-28.342-63.311-63.316-63.311
		C393.503,86.717,365.416,114.56,364.889,149.069z M455.01,217.658h-53.303c-0.579,21.332-9.682,40.542-24.08,54.349
		c39.731,11.811,68.801,48.658,68.801,92.179v20.245c52.624-1.934,82.964-16.84,84.962-17.852l4.226-2.145h0.455v-65.723
		C536.077,254.024,499.708,217.658,455.01,217.658z M107.937,277.044c12.386,0,23.903-3.618,33.67-9.777
		c3.106-20.241,13.958-37.932,29.454-49.975c0.065-1.188,0.174-2.361,0.174-3.561c0-34.971-28.351-63.311-63.298-63.311
		c-34.977,0-63.316,28.339-63.316,63.311C44.621,248.704,72.959,277.044,107.937,277.044z M164.795,335.714
		c-14.331-13.742-23.404-32.847-24.072-54.055c-1.971-0.147-3.928-0.295-5.943-0.295H81.069C36.366,281.364,0,317.728,0,362.425
		v65.709l0.166,1.023l4.528,1.412c34.214,10.699,64.761,15.616,91.292,17.153v-19.837
		C95.991,384.371,125.054,347.523,164.795,335.714z"/>
	</symbol>

	<symbol id="person" viewBox="0 0 350 350" >
	  <path d="M175,171.173c38.914,0,70.463-38.318,70.463-85.586C245.463,38.318,235.105,0,175,0s-70.465,38.318-70.465,85.587
		C104.535,132.855,136.084,171.173,175,171.173z"/>
	  <path d="M41.909,301.853C41.897,298.971,41.885,301.041,41.909,301.853L41.909,301.853z"/>
	  <path d="M308.085,304.104C308.123,303.315,308.098,298.63,308.085,304.104L308.085,304.104z"/>
	  <path d="M307.935,298.397c-1.305-82.342-12.059-105.805-94.352-120.657c0,0-11.584,14.761-38.584,14.761
		s-38.586-14.761-38.586-14.761c-81.395,14.69-92.803,37.805-94.303,117.982c-0.123,6.547-0.18,6.891-0.202,6.131
		c0.005,1.424,0.011,4.058,0.011,8.651c0,0,19.592,39.496,133.08,39.496c113.486,0,133.08-39.496,133.08-39.496
		c0-2.951,0.002-5.003,0.005-6.399C308.062,304.575,308.018,303.664,307.935,298.397z"/>
	</symbol>



	  <symbol id="corporate" viewBox="0 0 47.001 47.001" >
		  <path d="M44.845,42.718H2.136C0.956,42.718,0,43.674,0,44.855c0,1.179,0.956,2.135,2.136,2.135h42.708
				c1.18,0,2.136-0.956,2.136-2.135C46.979,43.674,46.023,42.718,44.845,42.718z"/>
		  <path d="M4.805,37.165c-1.18,0-2.136,0.956-2.136,2.136s0.956,2.137,2.136,2.137h37.37c1.18,0,2.136-0.957,2.136-2.137
				s-0.956-2.136-2.136-2.136h-0.533V17.945h0.533c0.591,0,1.067-0.478,1.067-1.067s-0.478-1.067-1.067-1.067H4.805
				c-0.59,0-1.067,0.478-1.067,1.067s0.478,1.067,1.067,1.067h0.534v19.219H4.805z M37.37,17.945v19.219h-6.406V17.945H37.37z
				 M26.692,17.945v19.219h-6.406V17.945H26.692z M9.609,17.945h6.406v19.219H9.609V17.945z"/>
		  <path d="M2.136,13.891h42.708c0.007,0,0.015,0,0.021,0c1.181,0,2.136-0.956,2.136-2.136c0-0.938-0.604-1.733-1.443-2.021
				l-21.19-9.535c-0.557-0.25-1.194-0.25-1.752,0L1.26,9.808c-0.919,0.414-1.424,1.412-1.212,2.396
				C0.259,13.188,1.129,13.891,2.136,13.891z"/>
	  </symbol>

	  <symbol id="membership" viewBox="-91 0 512 512" >
		  <path d="m275 61.042969h-65v-45.992188c0-8.28125-6.707031-14.9960935-14.988281-14.9999998 0 0-59.011719-.0507812-59.011719-.0507812-8.289062 0-15 6.730469-15 15v46.042969h-66c-30.328125 0-55 24.671875-55 54.996093v340.964844c0 30.324219 24.671875 54.996094 55 54.996094h220c30.328125 0 55-24.671875 55-54.996094v-340.964844c0-30.324218-24.671875-54.996093-55-54.996093zm-124-31.03125 29 .023437v61.003906h-29zm149 426.992187c0 13.78125-11.214844 24.996094-25 24.996094h-220c-13.785156 0-25-11.214844-25-24.996094v-340.964844c0-13.78125 11.214844-24.996093 25-24.996093h66v14.996093c0 8.285157 6.714844 15 15 15h59c8.285156 0 15-6.714843 15-15v-14.996093h65c13.785156 0 25 11.210937 25 24.996093zm0 0"/>
		  <path d="m255 361.011719h-180c-8.285156 0-15 6.714843-15 15 0 8.285156 6.714844 15 15 15h180c8.285156 0 15-6.714844 15-15 0-8.285157-6.714844-15-15-15zm0 0"/><path d="m135 421.007812h-60c-8.285156 0-15 6.714844-15 15 0 8.28125 6.714844 15 15 15h60c8.285156 0 15-6.71875 15-15 0-8.285156-6.714844-15-15-15zm0 0"/><path d="m255 421.007812h-60c-8.285156 0-15 6.714844-15 15 0 8.28125 6.714844 15 15 15h60c8.285156 0 15-6.71875 15-15 0-8.285156-6.714844-15-15-15zm0 0"/>
		  <path d="m105 331.019531h120c8.285156 0 15-6.71875 15-15v-30c0-27.613281-14.878906-51.898437-37.59375-65.007812 19.90625-29.703125-1.457031-69.980469-37.40625-69.980469-35.96875 0-57.394531 40.355469-37.328125 70.097656-23.542969 13.796875-37.671875 39.265625-37.671875 65.886719v29.003906c0 8.28125 6.714844 15 15 15zm60-149.988281c8.269531 0 15 6.730469 15 15s-6.730469 14.996094-15 14.996094-15-6.726563-15-14.996094 6.730469-15 15-15zm-45 105.984375c0-25.476563 20.597656-46.476563 45.921875-45.980469 24.304687.488282 44.078125 20.667969 44.078125 44.984375v15h-90zm0 0"/>
	  </symbol>

	  <symbol id="clock" viewBox="0 0 511.992 511.992" >
		  <path id="XMLID_389_" d="M511.005,279.646c-4.597-46.238-25.254-89.829-58.168-122.744    c-28.128-28.127-62.556-46.202-98.782-54.239V77.255c14.796-3.681,25.794-17.074,25.794-32.993c0-18.748-15.252-34-34-34h-72    c-18.748,0-34,15.252-34,34c0,15.918,10.998,29.311,25.793,32.993v25.479c-36.115,8.071-70.429,26.121-98.477,54.169    c-6.138,6.138-11.798,12.577-16.979,19.269c-0.251-0.019-0.502-0.038-0.758-0.038H78.167c-5.522,0-10,4.477-10,10s4.478,10,10,10    h58.412c-7.332,12.275-13.244,25.166-17.744,38.436H10c-5.522,0-10,4.477-10,10s4.478,10,10,10h103.184    c-2.882,12.651-4.536,25.526-4.963,38.437H64c-5.522,0-10,4.477-10,10s4.478,10,10,10h44.54    c0.844,12.944,2.925,25.82,6.244,38.437H50c-5.522,0-10,4.477-10,10s4.478,10,10,10h71.166    c9.81,25.951,25.141,50.274,45.999,71.132c32.946,32.946,76.582,53.608,122.868,58.181c6.606,0.652,13.217,0.975,19.819,0.975    c39.022,0,77.548-11.293,110.238-32.581c4.628-3.014,5.937-9.209,2.923-13.837s-9.209-5.937-13.837-2.923    c-71.557,46.597-167.39,36.522-227.869-23.957c-70.962-70.962-70.962-186.425,0-257.388c70.961-70.961,186.424-70.961,257.387,0    c60.399,60.4,70.529,156.151,24.086,227.673c-3.008,4.632-1.691,10.826,2.94,13.833c4.634,3.008,10.826,1.691,13.833-2.941    C504.367,371.396,515.537,325.241,511.005,279.646z M259.849,44.263c0-7.72,6.28-14,14-14h72c7.72,0,14,6.28,14,14s-6.28,14-14,14    h-1.794h-68.413h-1.793C266.129,58.263,259.849,51.982,259.849,44.263z M285.642,99.296V78.263h48.413v20.997    C317.979,97.348,301.715,97.36,285.642,99.296z"/>
		  <path id="XMLID_391_" d="M445.77,425.5c-2.64,0-5.21,1.07-7.069,2.93c-1.87,1.86-2.931,4.44-2.931,7.07    c0,2.63,1.061,5.21,2.931,7.07c1.859,1.87,4.43,2.93,7.069,2.93c2.63,0,5.2-1.06,7.07-2.93c1.86-1.86,2.93-4.44,2.93-7.07    c0-2.63-1.069-5.21-2.93-7.07C450.97,426.57,448.399,425.5,445.77,425.5z"/>
		  <path id="XMLID_394_" d="M310.001,144.609c-85.538,0-155.129,69.59-155.129,155.129s69.591,155.129,155.129,155.129    s155.129-69.59,155.129-155.129S395.539,144.609,310.001,144.609z M310.001,434.867c-74.511,0-135.129-60.619-135.129-135.129    s60.618-135.129,135.129-135.129S445.13,225.228,445.13,299.738S384.512,434.867,310.001,434.867z"/>
		  <path id="XMLID_397_" d="M373.257,222.34l-49.53,49.529c-4.142-2.048-8.801-3.205-13.726-3.205c-4.926,0-9.584,1.157-13.726,3.205    l-22.167-22.167c-3.906-3.905-10.236-3.905-14.143,0c-3.905,3.905-3.905,10.237,0,14.142l22.167,22.167    c-2.049,4.142-3.205,8.801-3.205,13.726c0,17.134,13.939,31.074,31.074,31.074s31.074-13.94,31.074-31.074    c0-4.925-1.157-9.584-3.205-13.726l48.076-48.076v0l1.453-1.453c3.905-3.905,3.905-10.237,0-14.142    S377.164,218.435,373.257,222.34z M310.001,310.812c-6.106,0-11.074-4.968-11.074-11.074s4.968-11.074,11.074-11.074    s11.074,4.968,11.074,11.074S316.107,310.812,310.001,310.812z"/>
		  <path id="XMLID_398_" d="M416.92,289.86h-9.265c-5.522,0-10,4.477-10,10s4.478,10,10,10h9.265c5.522,0,10-4.477,10-10    S422.442,289.86,416.92,289.86z"/>
		  <path id="XMLID_399_" d="M212.346,289.616h-9.264c-5.522,0-10,4.477-10,10s4.478,10,10,10h9.264c5.522,0,10-4.477,10-10    S217.868,289.616,212.346,289.616z"/>
		  <path id="XMLID_400_" d="M310.123,212.083c5.522,0,10-4.477,10-10v-9.264c0-5.523-4.478-10-10-10s-10,4.477-10,10v9.264    C300.123,207.606,304.601,212.083,310.123,212.083z"/>
		  <path id="XMLID_424_" d="M309.879,387.393c-5.522,0-10,4.477-10,10v9.264c0,5.523,4.478,10,10,10s10-4.477,10-10v-9.264    C319.879,391.87,315.401,387.393,309.879,387.393z"/>
		  <path id="XMLID_425_" d="M10,351.44c-2.63,0-5.21,1.07-7.07,2.93c-1.86,1.86-2.93,4.44-2.93,7.07c0,2.64,1.069,5.21,2.93,7.07    s4.44,2.93,7.07,2.93s5.21-1.07,7.069-2.93c1.86-1.86,2.931-4.44,2.931-7.07s-1.07-5.21-2.931-7.07    C15.21,352.51,12.63,351.44,10,351.44z"/> </symbol>


  </defs>
</svg>